<svg width="16" height="16" viewBox="0 0 16 16" fill="none" xmlns="http://www.w3.org/2000/svg">
<path d="M15.0579 2.80085L11.5994 2.51851C11.412 2.49884 11.2245 2.55491 11.0787 2.67416C10.9329 2.7935 10.8409 2.96619 10.823 3.15375C10.8099 3.34348 10.8714 3.53089 10.9945 3.67589C11.1176 3.82097 11.2924 3.91216 11.4817 3.93009L13.4344 4.09475L9.88202 7.64731L8.04691 5.8122V5.81228C7.91812 5.67703 7.73958 5.60054 7.55284 5.60054C7.36611 5.60054 7.18755 5.67702 7.05877 5.81228L2.65928 10.2118C2.49567 10.3345 2.39329 10.5223 2.37873 10.7263C2.36424 10.9305 2.43907 11.1308 2.58369 11.2755C2.72839 11.4201 2.92871 11.4949 3.13285 11.4804C3.33692 11.4659 3.52463 11.3635 3.64741 11.1998L7.55292 7.31794L9.38803 9.12947C9.51322 9.26967 9.69417 9.3472 9.8821 9.3412C10.0688 9.3412 10.2474 9.26473 10.3761 9.12947L14.4226 5.08294L14.5873 7.03559C14.5993 7.21452 14.6789 7.38218 14.81 7.50452C14.9411 7.62685 15.1138 7.69477 15.2932 7.69432H15.3637C15.5488 7.67076 15.7178 7.57717 15.836 7.4327C15.9541 7.28829 16.0125 7.10411 15.999 6.91799L15.7166 3.43594C15.7002 3.2691 15.6248 3.11352 15.5041 2.99711C15.3834 2.88077 15.2252 2.81113 15.0579 2.80076L15.0579 2.80085Z" fill="#897D4E"/>
<path d="M14.5864 13.6704H1.88214C1.75321 13.6586 1.63335 13.599 1.54622 13.5031C1.45908 13.4073 1.41105 13.2823 1.41165 13.1528V1.62473C1.41165 1.37263 1.27708 1.13959 1.05876 1.01351C0.840356 0.887423 0.571292 0.887423 0.352893 1.01351C0.134571 1.1396 8.58233e-08 1.37263 8.58233e-08 1.62473V13.1528C-0.000150029 13.6564 0.19663 14.1401 0.548332 14.5006C0.900033 14.861 1.37872 15.0697 1.88217 15.082H14.5865C14.8386 15.082 15.0717 14.9474 15.1978 14.7291C15.3238 14.5107 15.3238 14.2416 15.1978 14.0233C15.0717 13.8049 14.8386 13.6704 14.5865 13.6704L14.5864 13.6704Z" fill="#897D4E"/>
</svg>
