<svg width="11" height="8" viewBox="0 0 11 8" fill="none" xmlns="http://www.w3.org/2000/svg">
<path d="M10.473 7.37858C10.4907 7.34604 10.5 7.30996 10.5 7.27332C10.4999 7.22764 10.4853 7.183 10.458 7.14532L5.6999 0.597662C5.6555 0.536514 5.58219 0.5 5.5039 0.5C5.4256 0.5 5.3523 0.536517 5.30789 0.597662L0.541784 7.14532C0.508677 7.19119 0.494485 7.24699 0.50194 7.30212C0.509362 7.35725 0.537911 7.40788 0.58215 7.44433C0.626357 7.48082 0.683194 7.50063 0.741787 7.49998L10.262 7.49998C10.3055 7.49995 10.3482 7.48863 10.3854 7.46723C10.4226 7.44584 10.4529 7.41519 10.473 7.37858Z" fill="#252626"/>
</svg>
