<svg width="11" height="8" viewBox="0 0 11 8" fill="none" xmlns="http://www.w3.org/2000/svg">
<path d="M0.526986 0.621423C0.509277 0.653957 0.5 0.690041 0.5 0.726678C0.500065 0.772362 0.514714 0.816999 0.541994 0.854684L5.3001 7.40234C5.3445 7.46349 5.41781 7.5 5.4961 7.5C5.5744 7.5 5.6477 7.46348 5.69211 7.40234L10.4582 0.854684C10.4913 0.808815 10.5055 0.753008 10.4981 0.697875C10.4906 0.642746 10.4621 0.592122 10.4179 0.55567C10.3736 0.519184 10.3168 0.499367 10.2582 0.500015L0.738 0.500015C0.694509 0.500046 0.651831 0.511375 0.614621 0.532766C0.577414 0.554156 0.547107 0.584812 0.526986 0.621423Z" fill="#252626"/>
</svg>
