<svg width="7" height="10" viewBox="0 0 7 10" fill="none" xmlns="http://www.w3.org/2000/svg">
<path d="M6.87858 0.0269861C6.84604 0.00927736 6.80996 1.66139e-08 6.77332 1.98168e-08C6.72764 6.48737e-05 6.683 0.0147143 6.64532 0.0419941L0.097662 4.8001C0.0365134 4.8445 3.25381e-08 4.91781 3.93827e-08 4.99611C4.62274e-08 5.0744 0.0365167 5.1477 0.097662 5.19211L6.64532 9.95822C6.69119 9.99132 6.74699 10.0055 6.80212 9.99806C6.85725 9.99064 6.90788 9.96209 6.94433 9.91785C6.98082 9.87364 7.00063 9.81681 6.99998 9.75821L6.99998 0.238C6.99995 0.194509 6.98862 0.151831 6.96723 0.114621C6.94584 0.0774136 6.91519 0.0471068 6.87858 0.0269861Z" fill="#252626" fill-opacity="0.7"/>
</svg>
