<svg width="24" height="25" viewBox="0 0 24 25" fill="none" xmlns="http://www.w3.org/2000/svg">
<path d="M23.6425 0.856559C23.5728 0.786864 23.4901 0.731576 23.3991 0.693855C23.3081 0.656134 23.2105 0.636719 23.112 0.636719C23.0134 0.636719 22.9159 0.656134 22.8248 0.693855C22.7338 0.731576 22.6511 0.786864 22.5815 0.856559L11.9995 11.4386L1.41746 0.856559C1.27676 0.715861 1.08594 0.636818 0.886959 0.636818C0.687983 0.636818 0.497156 0.715861 0.356459 0.856559C0.215762 0.997256 0.136719 1.18808 0.136719 1.38706C0.136719 1.58603 0.215762 1.77686 0.356459 1.91756L10.9385 12.4996L0.356459 23.0816C0.219772 23.2229 0.144086 23.4124 0.145701 23.609C0.147317 23.8057 0.226105 23.9938 0.365096 24.1329C0.504087 24.2721 0.69216 24.351 0.888808 24.3528C1.08546 24.3546 1.27494 24.2791 1.41646 24.1426L11.9995 13.5606L22.5815 24.1426C22.651 24.2123 22.7336 24.2677 22.8245 24.3055C22.9155 24.3433 23.013 24.3627 23.1115 24.3627C23.2099 24.3627 23.3075 24.3433 23.3984 24.3055C23.4894 24.2677 23.572 24.2123 23.6415 24.1426C23.7112 24.0729 23.7664 23.9902 23.8042 23.8992C23.8419 23.8082 23.8613 23.7106 23.8613 23.6121C23.8613 23.5135 23.8419 23.416 23.8042 23.3249C23.7664 23.2339 23.7112 23.1512 23.6415 23.0816L13.0605 12.4996L23.6425 1.91756C23.7122 1.84791 23.7674 1.76521 23.8052 1.67418C23.8429 1.58316 23.8623 1.48559 23.8623 1.38706C23.8623 1.28853 23.8429 1.19096 23.8052 1.09994C23.7674 1.00891 23.7122 0.926209 23.6425 0.856559Z" fill="white" fill-opacity="0.5"/>
</svg>
