<svg width="12" height="12" viewBox="0 0 12 12" fill="none" xmlns="http://www.w3.org/2000/svg">
<path d="M6 0.5C2.96746 0.5 0.5 2.96724 0.5 6C0.5 9.03276 2.96746 11.5 6 11.5C9.03254 11.5 11.5 9.03276 11.5 6C11.5 2.96724 9.03254 0.5 6 0.5ZM6 10.8349C3.33388 10.8349 1.16497 8.66605 1.16497 5.99986C1.16497 3.33368 3.33388 1.16485 6 1.16485C8.66612 1.16485 10.835 3.33368 10.835 5.99986C10.835 8.66605 8.66612 10.8349 6 10.8349ZM5.66751 4.21271H6.33249V3.18746H5.66751V4.21271ZM5.66751 8.8122H6.33249V4.91926H5.66751V8.8122Z" fill="#252626"/>
</svg>
