<svg width="14" height="14" viewBox="0 0 14 14" fill="none" xmlns="http://www.w3.org/2000/svg">
<path d="M7 0C3.1404 0 0 3.14013 0 7C0 10.8599 3.1404 14 7 14C10.8596 14 14 10.8599 14 7C14 3.14013 10.8596 0 7 0ZM7 13.1535C3.60676 13.1535 0.846326 10.3931 0.846326 6.99982C0.846326 3.6065 3.60676 0.846171 7 0.846171C10.3932 0.846171 13.1537 3.6065 13.1537 6.99982C13.1537 10.3931 10.3932 13.1535 7 13.1535ZM6.57684 4.72526H7.42316V3.42041H6.57684V4.72526ZM6.57684 10.5792H7.42316V5.62451H6.57684V10.5792Z" fill="white"/>
</svg>
