<svg width="20" height="20" viewBox="0 0 20 20" fill="none" xmlns="http://www.w3.org/2000/svg">
<path d="M16.9335 9.99979C19.5383 13.9032 19.9733 17.0779 19.9947 17.2504C19.998 17.2777 20 17.3054 20 17.3331C20 18.8035 18.804 19.9998 17.3333 19.9998C17.306 19.9998 17.278 19.9981 17.2506 19.9945C17.0777 19.9731 13.9025 19.5378 10 16.9339C6.09719 19.5378 2.92216 19.9731 2.74938 19.995C2.72203 19.9984 2.69404 20 2.66669 20C1.19598 20 0 18.8037 0 17.3333C0 17.3056 0.00195303 17.278 0.00531689 17.2506C0.0266929 17.0777 0.461711 13.9028 3.06646 10C0.462488 6.09694 0.0272615 2.92247 0.00531689 2.74969C0.00195325 2.72202 0 2.69436 0 2.66669C0 1.19629 1.19598 0 2.66669 0C2.69404 0 2.72203 0.00162697 2.74938 0.00531769C2.92234 0.0270176 6.09719 0.462013 10 3.06645C13.9031 0.462042 17.0778 0.0272617 17.2506 0.00531769C17.278 0.00162697 17.306 0 17.3333 0C18.804 0 20 1.19629 20 2.66669C20 2.69436 19.998 2.72202 19.9947 2.74937C19.973 2.92233 19.538 6.09717 16.9335 9.99998V9.99979ZM17.3768 18.666C18.0774 18.6436 18.6432 18.0773 18.6658 17.377C18.6101 17.0231 18.1361 14.4081 16.0945 11.1725C15.4411 12.0348 14.6911 12.9182 13.8044 13.8046C12.9181 14.6913 12.0347 15.4413 11.1723 16.0946C14.4079 18.1358 17.0227 18.6105 17.3768 18.6658L17.3768 18.666ZM15.3028 9.99979C14.6277 9.06673 13.8261 8.10211 12.8618 7.13783C11.8975 6.17354 10.9327 5.37187 9.99981 4.69684C9.06675 5.37187 8.10213 6.17352 7.13784 7.13783C6.17355 8.10214 5.37188 9.06687 4.69684 9.99979C5.37218 10.9329 6.17352 11.8975 7.13784 12.8618C8.10215 13.826 9.06688 14.6277 9.99981 15.3027C10.9329 14.6277 11.8975 13.8261 12.8618 12.8618C13.8261 11.8974 14.6279 10.9328 15.3028 9.99979ZM1.33376 17.3768C1.35644 18.0774 1.9224 18.6435 2.62271 18.6657C2.97711 18.6101 5.59163 18.1358 8.82666 16.0944C7.96435 15.4411 7.08131 14.6911 6.19458 13.8044C5.30785 12.9177 4.55784 12.0348 3.90453 11.1723C1.8634 14.4079 1.38898 17.0226 1.33365 17.3768L1.33376 17.3768ZM2.62282 1.33362C1.92218 1.35597 1.35642 1.92226 1.33387 2.62257C1.38953 2.97652 1.86382 5.59149 3.90517 8.82651C4.55851 7.9642 5.30852 7.08116 6.19522 6.19443C7.08151 5.3077 7.96488 4.5577 8.8273 3.90439C5.59144 1.86357 2.97669 1.38884 2.6228 1.33351L2.62282 1.33362ZM17.3769 1.33362C17.0229 1.38929 14.4082 1.86357 11.1729 3.90492C12.0352 4.55825 12.9183 5.30826 13.805 6.19496C14.6917 7.08166 15.4417 7.96461 16.095 8.82703C18.1364 5.59173 18.611 2.97699 18.6663 2.6231C18.6433 1.92235 18.0774 1.35607 17.3769 1.3337L17.3769 1.33362ZM9.99984 12.6665C8.52913 12.6665 7.33315 11.4702 7.33315 9.99979C7.33315 8.52939 8.52913 7.33311 9.99984 7.33311C11.4705 7.33311 12.6665 8.52939 12.6665 9.99979C12.6665 11.4702 11.4705 12.6665 9.99984 12.6665ZM9.99984 8.66645C9.2648 8.66645 8.66649 9.26443 8.66649 9.99979C8.66649 10.7352 9.2648 11.3331 9.99984 11.3331C10.7349 11.3331 11.3332 10.7352 11.3332 9.99979C11.3332 9.26443 10.7349 8.66645 9.99984 8.66645Z" fill="#616161"/>
</svg>
