<svg width="16" height="16" viewBox="0 0 16 16" fill="none" xmlns="http://www.w3.org/2000/svg">
<path opacity="0.5" d="M15.8115 14.9351L11.2767 10.3857C12.2124 9.25071 12.7199 7.82303 12.7114 6.35282C12.7114 4.66752 12.0417 3.05239 10.8501 1.86039C9.65833 0.669267 8.04131 0 6.35612 0C4.66995 0 3.05398 0.669332 1.86135 1.86039C0.669614 3.05227 0 4.66769 0 6.35282C0 8.0373 0.66968 9.65325 1.86135 10.8444C3.05386 12.0356 4.67011 12.7048 6.35612 12.7048C7.82696 12.7133 9.25542 12.2061 10.3911 11.2709L14.9428 15.8202C15.1827 16.0599 15.5717 16.0599 15.8116 15.8202C15.9323 15.7041 16 15.5443 16 15.3775C16 15.21 15.9323 15.0502 15.8116 14.9349L15.8115 14.9351ZM1.23004 6.35282C1.23004 4.99417 1.76978 3.69093 2.73163 2.73025C3.69272 1.76889 4.99681 1.22943 6.35609 1.22943C7.71536 1.22943 9.01854 1.76889 9.98054 2.73025C10.9416 3.69084 11.4814 4.99425 11.4814 6.35282C11.4814 7.71139 10.9416 9.01389 9.98054 9.97539C9.01868 10.936 7.71536 11.4754 6.35609 11.4754C4.99681 11.4754 3.69282 10.936 2.73163 9.97539C1.76978 9.01403 1.23004 7.71139 1.23004 6.35282Z" fill="white"/>
</svg>
