<svg width="15" height="15" viewBox="0 0 15 15" fill="none" xmlns="http://www.w3.org/2000/svg">
<path d="M14.2612 12.5268L11.5269 9.79188C12.1435 8.82664 12.5187 7.67364 12.5187 6.44026C12.5187 2.98138 9.704 0.166016 6.24595 0.166016C2.78789 0.166016 0 2.98138 0 6.44026C0 9.89914 2.8147 12.7145 6.27275 12.7145C7.53262 12.7145 8.68535 12.3391 9.6772 11.6956L12.4115 14.4305C12.6795 14.6986 13.0281 14.8327 13.3497 14.8327C13.6982 14.8327 14.0467 14.6986 14.2879 14.4305C14.7973 13.8943 14.7973 13.0363 14.2612 12.5269L14.2612 12.5268ZM2.68071 6.44026C2.68071 4.45607 4.28911 2.84732 6.2728 2.84732C8.25642 2.84732 9.83808 4.4561 9.83808 6.44026C9.83808 8.42442 8.22968 10.0332 6.24599 10.0332C4.2623 10.0332 2.68071 8.39763 2.68071 6.44026Z" fill="#6A6A6A"/>
</svg>
