<svg width="23" height="25" viewBox="0 0 23 25" fill="none" xmlns="http://www.w3.org/2000/svg">
<path opacity="0.4" d="M22.4762 15.344C22.2432 14.984 21.912 14.624 21.4828 14.396C21.1394 14.228 20.9187 13.952 20.7225 13.628C20.097 12.596 20.4649 11.24 21.5073 10.628C22.7337 9.944 23.1261 8.42 22.4148 7.232L21.5932 5.816C20.8942 4.628 19.3612 4.208 18.1471 4.904C17.068 5.48 15.6822 5.096 15.0567 4.076C14.8605 3.74 14.7502 3.38 14.7747 3.02C14.8115 2.552 14.6643 2.108 14.4436 1.748C13.9898 1.004 13.1682 0.5 12.2607 0.5H10.5315C9.63628 0.524 8.81463 1.004 8.36088 1.748C8.12788 2.108 7.99298 2.552 8.0175 3.02C8.04203 3.38 7.93166 3.74 7.73544 4.076C7.11001 5.096 5.72423 5.48 4.65731 4.904C3.43096 4.208 1.91029 4.628 1.199 5.816L0.377351 7.232C-0.321668 8.42 0.0707635 9.944 1.28485 10.628C2.32725 11.24 2.69515 12.596 2.08198 13.628C1.8735 13.952 1.65275 14.228 1.30938 14.396C0.892417 14.624 0.524513 14.984 0.328297 15.344C-0.125452 16.088 -0.100925 17.024 0.352824 17.804L1.199 19.244C1.65275 20.012 2.49893 20.492 3.38191 20.492C3.79886 20.492 4.2894 20.372 4.68183 20.132C4.98842 19.928 5.35633 19.856 5.76102 19.856C6.97511 19.856 7.99298 20.852 8.0175 22.04C8.0175 23.42 9.14574 24.5 10.5683 24.5H12.2361C13.6464 24.5 14.7747 23.42 14.7747 22.04C14.8115 20.852 15.8293 19.856 17.0434 19.856C17.4359 19.856 17.8038 19.928 18.1226 20.132C18.515 20.372 18.9933 20.492 19.4225 20.492C20.2933 20.492 21.1394 20.012 21.5932 19.244L22.4516 17.804C22.8931 17 22.9299 16.088 22.4762 15.344Z" fill="black"/>
<path d="M11.4145 15.8972C9.4891 15.8972 7.93164 14.3972 7.93164 12.5132C7.93164 10.6292 9.4891 9.11719 11.4145 9.11719C13.3398 9.11719 14.8605 10.6292 14.8605 12.5132C14.8605 14.3972 13.3398 15.8972 11.4145 15.8972Z" fill="black"/>
</svg>
