<svg width="23" height="24" viewBox="0 0 23 24" fill="none" xmlns="http://www.w3.org/2000/svg">
<path d="M22.4762 14.844C22.2432 14.484 21.912 14.124 21.4828 13.896C21.1394 13.728 20.9187 13.452 20.7225 13.128C20.097 12.096 20.4649 10.74 21.5073 10.128C22.7337 9.444 23.1261 7.92 22.4148 6.732L21.5932 5.316C20.8942 4.128 19.3612 3.708 18.1471 4.404C17.068 4.98 15.6822 4.596 15.0567 3.576C14.8605 3.24 14.7502 2.88 14.7747 2.52C14.8115 2.052 14.6643 1.608 14.4436 1.248C13.9898 0.504 13.1682 0 12.2607 0H10.5315C9.63628 0.024 8.81463 0.504 8.36088 1.248C8.12788 1.608 7.99298 2.052 8.0175 2.52C8.04203 2.88 7.93166 3.24 7.73544 3.576C7.11001 4.596 5.72423 4.98 4.65731 4.404C3.43096 3.708 1.91029 4.128 1.199 5.316L0.377351 6.732C-0.321668 7.92 0.0707635 9.444 1.28485 10.128C2.32725 10.74 2.69515 12.096 2.08198 13.128C1.8735 13.452 1.65275 13.728 1.30938 13.896C0.892417 14.124 0.524513 14.484 0.328297 14.844C-0.125452 15.588 -0.100925 16.524 0.352824 17.304L1.199 18.744C1.65275 19.512 2.49893 19.992 3.38191 19.992C3.79886 19.992 4.2894 19.872 4.68183 19.632C4.98842 19.428 5.35633 19.356 5.76102 19.356C6.97511 19.356 7.99298 20.352 8.0175 21.54C8.0175 22.92 9.14574 24 10.5683 24H12.2361C13.6464 24 14.7747 22.92 14.7747 21.54C14.8115 20.352 15.8293 19.356 17.0434 19.356C17.4359 19.356 17.8038 19.428 18.1226 19.632C18.515 19.872 18.9933 19.992 19.4225 19.992C20.2933 19.992 21.1394 19.512 21.5932 18.744L22.4516 17.304C22.8931 16.5 22.9299 15.588 22.4762 14.844Z" fill="white" fill-opacity="0.4"/>
<path d="M11.4145 15.3972C9.4891 15.3972 7.93164 13.8972 7.93164 12.0132C7.93164 10.1292 9.4891 8.61719 11.4145 8.61719C13.3398 8.61719 14.8605 10.1292 14.8605 12.0132C14.8605 13.8972 13.3398 15.3972 11.4145 15.3972Z" fill="#252626"/>
</svg>
