<svg width="21" height="21" viewBox="0 0 21 21" fill="none" xmlns="http://www.w3.org/2000/svg">
<path fill-rule="evenodd" clip-rule="evenodd" d="M17.0456 9.13661C17.0456 8.66293 17.4297 8.2797 17.9026 8.2797C18.3762 8.2797 18.7603 8.66375 18.7603 9.13661V17.5017C18.7603 19.1538 17.4149 20.4992 15.7621 20.4992L3.39792 20.5C1.74579 20.5 0.400391 19.1546 0.400391 17.5025V5.13833C0.400391 3.4862 1.74579 2.1408 3.39792 2.1408H13.9603C14.434 2.1408 14.8172 2.52485 14.8172 2.99771C14.8172 3.47139 14.4332 3.85462 13.9603 3.85462H3.39792C2.69233 3.85462 2.11421 4.43191 2.11421 5.13833V17.5025C2.11421 18.2081 2.6915 18.7862 3.39792 18.7862H15.7621C16.4677 18.7862 17.0458 18.2081 17.0458 17.5025L17.0456 9.13661ZM18.8467 0.865249L10.2711 13.1185C10.17 13.2633 9.95451 13.283 9.8435 13.1218L7.3 9.44323C7.03191 9.05507 6.49985 8.95722 6.11087 9.2253C5.72271 9.49339 5.62485 10.0255 5.89376 10.4144L8.43656 14.093C9.21452 15.218 10.8765 15.2312 11.6709 14.0963L20.2465 1.84303C20.5162 1.45653 20.4225 0.924459 20.0351 0.6539C19.6486 0.384164 19.1166 0.477918 18.846 0.865249H18.8467Z" fill="#B1A459"/>
</svg>
