<svg width="25" height="22" viewBox="0 0 25 22" fill="none" xmlns="http://www.w3.org/2000/svg">
<path d="M19.4662 21.5L24.4277 16.5385L19.4662 11.5769L18.396 12.6384L21.546 15.7885H12.1105V17.2885H21.546L18.4047 20.4385L19.4662 21.5ZM8.21469 17.4328C8.46758 17.4328 8.68013 17.3471 8.85218 17.176C9.02438 17.005 9.11048 16.7929 9.11048 16.54C9.11048 16.2871 9.02483 16.0745 8.85383 15.9025C8.68268 15.7303 8.47058 15.6442 8.21769 15.6442C7.96478 15.6442 7.75223 15.7298 7.58018 15.9008C7.40798 16.072 7.32203 16.2839 7.32203 16.537C7.32203 16.7899 7.40753 17.0024 7.57868 17.1745C7.74968 17.3467 7.96178 17.4328 8.21469 17.4328ZM3.42623 17.4328C3.67913 17.4328 3.89168 17.3471 4.06373 17.176C4.23593 17.005 4.32203 16.7929 4.32203 16.54C4.32203 16.2871 4.23639 16.0745 4.06524 15.9025C3.89424 15.7303 3.68213 15.6442 3.42924 15.6442C3.17633 15.6442 2.96379 15.7298 2.79173 15.9008C2.61954 16.072 2.53343 16.2839 2.53343 16.537C2.53343 16.7899 2.61908 17.0024 2.79008 17.1745C2.96123 17.3467 3.17333 17.4328 3.42623 17.4328ZM5.38928 10.4231L6.45938 9.39038L3.28058 6.21154H12.745V4.71151H3.30953L6.45083 1.56155L5.38928 0.5L0.427734 5.46154L5.38928 10.4231ZM21.4262 6.35576C21.6792 6.35576 21.8917 6.27022 22.0638 6.09911C22.2359 5.92802 22.322 5.716 22.322 5.46304C22.322 5.21012 22.2364 4.99759 22.0653 4.82547C21.8942 4.65334 21.6822 4.56729 21.4292 4.56729C21.1763 4.56729 20.9638 4.65285 20.7917 4.82397C20.6196 4.99507 20.5335 5.20708 20.5335 5.46001C20.5335 5.71295 20.6191 5.92547 20.7902 6.09758C20.9613 6.26971 21.1733 6.35576 21.4262 6.35576ZM16.6377 6.35576C16.8907 6.35576 17.1032 6.27022 17.2753 6.09911C17.4475 5.92802 17.5335 5.716 17.5335 5.46304C17.5335 5.21012 17.448 4.99759 17.2769 4.82547C17.1057 4.65334 16.8937 4.56729 16.6408 4.56729C16.3879 4.56729 16.1753 4.65285 16.0032 4.82397C15.8311 4.99507 15.745 5.20708 15.745 5.46001C15.745 5.71295 15.8306 5.92547 16.0017 6.09758C16.1728 6.26971 16.3848 6.35576 16.6377 6.35576Z" fill="#252626" stroke="#252626" stroke-width="0.5"/>
</svg>
