<svg width="25" height="22" viewBox="0 0 25 22" fill="none" xmlns="http://www.w3.org/2000/svg">
<path d="M5.39124 21.5L0.429688 16.5385L5.39124 11.5769L6.46141 12.6384L3.31141 15.7885H12.747V17.2885H3.31141L6.45274 20.4385L5.39124 21.5ZM16.6427 17.4328C16.3898 17.4328 16.1773 17.3471 16.0052 17.176C15.833 17.005 15.7469 16.7929 15.7469 16.54C15.7469 16.2871 15.8326 16.0745 16.0036 15.9025C16.1747 15.7303 16.3868 15.6442 16.6397 15.6442C16.8926 15.6442 17.1052 15.7298 17.2772 15.9008C17.4494 16.072 17.5354 16.2839 17.5354 16.537C17.5354 16.7899 17.4499 17.0024 17.2787 17.1745C17.1077 17.3467 16.8956 17.4328 16.6427 17.4328ZM21.4312 17.4328C21.1783 17.4328 20.9657 17.3471 20.7937 17.176C20.6215 17.005 20.5354 16.7929 20.5354 16.54C20.5354 16.2871 20.621 16.0745 20.7922 15.9025C20.9632 15.7303 21.1753 15.6442 21.4282 15.6442C21.6811 15.6442 21.8936 15.7298 22.0657 15.9008C22.2379 16.072 22.324 16.2839 22.324 16.537C22.324 16.7899 22.2383 17.0024 22.0673 17.1745C21.8962 17.3467 21.6841 17.4328 21.4312 17.4328ZM19.4681 10.4231L18.398 9.39038L21.5768 6.21154H12.1124V4.71151H21.5479L18.4066 1.56155L19.4681 0.5L24.4297 5.46154L19.4681 10.4231ZM3.43119 6.35576C3.17826 6.35576 2.96574 6.27022 2.79361 6.09911C2.62152 5.92802 2.53546 5.716 2.53546 5.46304C2.53546 5.21012 2.62101 4.99759 2.79211 4.82547C2.96322 4.65334 3.17524 4.56729 3.42819 4.56729C3.68112 4.56729 3.89364 4.65285 4.06576 4.82397C4.23786 4.99507 4.32391 5.20708 4.32391 5.46001C4.32391 5.71295 4.23837 5.92547 4.06726 6.09758C3.89616 6.26971 3.68413 6.35576 3.43119 6.35576ZM8.21968 6.35576C7.96675 6.35576 7.75422 6.27022 7.58209 6.09911C7.40997 5.92802 7.32391 5.716 7.32391 5.46304C7.32391 5.21012 7.40946 4.99759 7.58056 4.82547C7.75168 4.65334 7.96371 4.56729 8.21664 4.56729C8.46957 4.56729 8.68209 4.65285 8.85421 4.82397C9.02634 4.99507 9.11241 5.20708 9.11241 5.46001C9.11241 5.71295 9.02685 5.92547 8.85576 6.09758C8.68462 6.26971 8.4726 6.35576 8.21968 6.35576Z" fill="#252626" stroke="#252626" stroke-width="0.5"/>
</svg>
