<svg width="16" height="16" viewBox="0 0 16 16" fill="none" xmlns="http://www.w3.org/2000/svg">
<path fill-rule="evenodd" clip-rule="evenodd" d="M0 3.0769V12.9231C0 13.7391 0.324301 14.5219 0.900894 15.0991C1.47814 15.6757 2.2609 16 3.0769 16H12.9231C13.7391 16 14.5219 15.6757 15.0991 15.0991C15.6757 14.5219 16 13.7391 16 12.9231V3.0769C16 2.26087 15.6757 1.47811 15.0991 0.900894C14.5219 0.324284 13.7391 0 12.9231 0H3.0769C2.26087 0 1.47811 0.324301 0.900894 0.900894C0.324284 1.47814 0 2.2609 0 3.0769ZM14.7693 12.3077V12.9231C14.7693 13.413 14.5748 13.8825 14.2284 14.2284C13.8826 14.5748 13.413 14.7693 12.9231 14.7693H11.077V12.3077H14.7693ZM6.15387 14.7693H9.8462V12.3077H6.15387V14.7693ZM4.9231 14.7693H3.07694C2.58705 14.7693 2.11757 14.5748 1.77167 14.2284C1.4252 13.8825 1.23077 13.413 1.23077 12.9231V12.3077H4.9231V14.7693ZM1.23077 8.61539V11.0769H4.9231V8.61539H1.23077ZM6.15387 8.61539V11.0769H9.8462V8.61539H6.15387ZM14.7693 11.0769V8.61539H11.077V11.0769H14.7693ZM1.23077 4.92306V7.38461H4.9231V4.92306H1.23077ZM7.84003 4.92306H6.15387V7.38461H9.8462V4.92306H7.84003ZM11.077 4.92306V7.38461H14.7693V4.92306H11.077ZM14.7693 3.69229H1.23077V3.0769C1.23077 2.58702 1.42527 2.11754 1.77167 1.77164C2.11751 1.42517 2.58707 1.23074 3.07694 1.23074H12.9231C13.413 1.23074 13.8825 1.42524 14.2284 1.77164C14.5749 2.11747 14.7693 2.58704 14.7693 3.0769V3.69229Z" fill="#897D4E"/>
</svg>
